# This file uses centimeters as units for non-parametric coordinates.

mtllib doorframe.mtl
g default
v -1.204679 -2.176930 0.203127
v 1.204679 -2.176930 0.203127
v -1.204679 2.176930 0.203127
v 1.204679 2.176930 0.203127
v -1.062919 -2.176643 0.203127
v 1.064087 -2.176732 0.203127
v 1.062919 1.920760 0.203127
v -1.062919 1.920760 0.203127
v -1.204679 2.176930 -0.061631
v 1.204679 2.176930 -0.061631
v -1.204679 -2.176930 -0.061631
v 1.204679 -2.176930 -0.061631
v -1.062919 -2.176643 -0.061631
v 1.064087 -2.176732 -0.061631
v 1.062919 1.920760 -0.061631
v -1.062919 1.920760 -0.061631
vt 0.375000 0.000000
vt 0.625000 0.000000
vt 0.375000 0.250000
vt 0.625000 0.250000
vt 0.375000 0.000000
vt 0.625000 0.000000
vt 0.625000 0.250000
vt 0.375000 0.250000
vt 0.000000 0.000000
vt 1.000000 0.000000
vt 1.000000 1.000000
vt 0.000000 1.000000
vt 0.000000 0.000000
vt 1.000000 0.000000
vt 1.000000 1.000000
vt 0.000000 1.000000
vt 0.000000 0.000000
vt 1.000000 0.000000
vt 1.000000 1.000000
vt 0.000000 1.000000
vt 0.000000 0.000000
vt 1.000000 0.000000
vt 1.000000 1.000000
vt 0.000000 1.000000
vt 0.000000 0.000000
vt 1.000000 0.000000
vt 1.000000 1.000000
vt 0.000000 1.000000
vt 0.000000 0.000000
vt 1.000000 0.000000
vt 1.000000 1.000000
vt 0.000000 1.000000
vt 0.000000 0.000000
vt 1.000000 0.000000
vt 1.000000 1.000000
vt 0.000000 1.000000
vt 0.000000 0.000000
vt 1.000000 0.000000
vt 1.000000 1.000000
vt 0.000000 1.000000
vn 0.000000 0.000000 1.000000
vn 0.000000 0.000000 1.000000
vn 0.000000 0.000000 1.000000
vn 0.000000 0.000000 1.000000
vn 0.000000 0.000000 1.000000
vn 0.000000 0.000000 1.000000
vn 0.000000 0.000000 1.000000
vn 0.000000 0.000000 1.000000
vn 0.000000 1.000000 0.000000
vn 0.000000 1.000000 0.000000
vn 0.000000 1.000000 0.000000
vn 0.000000 1.000000 0.000000
vn -1.000000 0.000000 0.000000
vn -1.000000 0.000000 0.000000
vn -1.000000 0.000000 0.000000
vn -1.000000 0.000000 0.000000
vn 1.000000 0.000000 0.000000
vn 1.000000 0.000000 0.000000
vn 1.000000 0.000000 0.000000
vn 1.000000 0.000000 0.000000
vn 0.002022 -0.999998 0.000000
vn 0.002022 -0.999998 0.000000
vn 0.002022 -0.999998 0.000000
vn 0.002022 -0.999998 0.000000
vn -0.001407 -0.999999 0.000000
vn -0.001407 -0.999999 0.000000
vn -0.001407 -0.999999 0.000000
vn -0.001407 -0.999999 0.000000
vn -1.000000 -0.000285 0.000000
vn -1.000000 -0.000285 0.000000
vn -1.000000 -0.000285 0.000000
vn -1.000000 -0.000285 0.000000
vn 0.000000 -1.000000 0.000000
vn 0.000000 -1.000000 0.000000
vn 0.000000 -1.000000 0.000000
vn 0.000000 -1.000000 0.000000
vn 1.000000 0.000000 0.000000
vn 1.000000 0.000000 0.000000
vn 1.000000 0.000000 0.000000
vn 1.000000 0.000000 0.000000
s 1
g pCube1
usemtl initialShadingGroup
f 2/2/1 4/4/2 7/7/3 6/6/4
f 4/4/2 3/3/5 8/8/6 7/7/3
f 3/3/5 1/1/7 5/5/8 8/8/6
s off
f 3/9/9 4/10/10 10/11/11 9/12/12
f 1/13/13 3/14/14 9/15/15 11/16/16
f 4/17/17 2/18/18 12/19/19 10/20/20
f 5/21/21 1/22/22 11/23/23 13/24/24
f 2/25/25 6/26/26 14/27/27 12/28/28
f 6/29/29 7/30/30 15/31/31 14/32/32
f 7/33/33 8/34/34 16/35/35 15/36/36
f 8/37/37 5/38/38 13/39/39 16/40/40
